<?xml version="1.0" encoding="UTF-8" standalone="no"?>
<!DOCTYPE svg PUBLIC "-//W3C//DTD SVG 1.1//EN"
 "http://www.w3.org/Graphics/SVG/1.1/DTD/svg11.dtd">
<!-- Generated by graphviz version 2.40.1 (20161225.0304)
 -->
<!-- Title: dependencies Pages: 1 -->
<svg width="2081pt" height="211pt"
 viewBox="0.00 0.00 2081.00 211.00" xmlns="http://www.w3.org/2000/svg" xmlns:xlink="http://www.w3.org/1999/xlink">
<g id="graph0" class="graph" transform="scale(1 1) rotate(0) translate(4 207)">
<title>dependencies</title>
<polygon fill="#ffffff" stroke="transparent" points="-4,4 -4,-207 2077,-207 2077,4 -4,4"/>
<text text-anchor="start" x="1015.5091" y="-42.4" font-family="sans-serif" font-weight="bold" font-size="14.00" fill="#000000">Legend</text>
<polygon fill="#ffffb3" stroke="transparent" points="802.5,-10 802.5,-30 822.5,-30 822.5,-10 802.5,-10"/>
<text text-anchor="start" x="826.129" y="-15.4" font-family="sans-serif" font-size="14.00" fill="#000000"> &#160;Declarations</text>
<polygon fill="#8dd3c7" stroke="transparent" points="915.5,-10 915.5,-30 935.5,-30 935.5,-10 915.5,-10"/>
<text text-anchor="start" x="939.2251" y="-15.4" font-family="sans-serif" font-size="14.00" fill="#000000"> &#160;Module</text>
<polygon fill="#80b1d3" stroke="transparent" points="1001.5,-10 1001.5,-30 1021.5,-30 1021.5,-10 1001.5,-10"/>
<text text-anchor="start" x="1025.2812" y="-15.4" font-family="sans-serif" font-size="14.00" fill="#000000"> &#160;Bootstrap</text>
<polygon fill="#fdb462" stroke="transparent" points="1098.5,-10 1098.5,-30 1118.5,-30 1118.5,-10 1098.5,-10"/>
<text text-anchor="start" x="1122.1732" y="-15.4" font-family="sans-serif" font-size="14.00" fill="#000000"> &#160;Providers</text>
<polygon fill="#fb8072" stroke="transparent" points="1194.5,-10 1194.5,-30 1214.5,-30 1214.5,-10 1194.5,-10"/>
<text text-anchor="start" x="1218.2258" y="-15.4" font-family="sans-serif" font-size="14.00" fill="#000000"> &#160;Exports</text>
<g id="clust1" class="cluster">
<title>cluster_SearchResultsModule</title>
<polygon fill="none" stroke="#000000" stroke-dasharray="1,5" points="8,-70 8,-195 2065,-195 2065,-70 8,-70"/>
</g>
<g id="clust2" class="cluster">
<title>cluster_SearchResultsModule_declarations</title>
<polygon fill="none" stroke="#000000" points="442,-78 442,-130 2057,-130 2057,-78 442,-78"/>
</g>
<g id="clust12" class="cluster">
<title>cluster_SearchResultsModule_imports</title>
<polygon fill="none" stroke="#000000" points="320,-78 320,-130 434,-130 434,-78 320,-78"/>
</g>
<g id="clust15" class="cluster">
<title>cluster_SearchResultsModule_providers</title>
<polygon fill="none" stroke="#000000" points="16,-78 16,-130 312,-130 312,-78 16,-78"/>
</g>
<!-- CategoryListComponent -->
<g id="node1" class="node">
<title>CategoryListComponent</title>
<polygon fill="#ffffb3" stroke="#000000" points="2049.4284,-122 1894.5716,-122 1894.5716,-86 2049.4284,-86 2049.4284,-122"/>
<text text-anchor="middle" x="1972" y="-99.8" font-family="Times,serif" font-size="14.00" fill="#000000">CategoryListComponent</text>
</g>
<!-- SearchResultsModule -->
<g id="node10" class="node">
<title>SearchResultsModule</title>
<polygon fill="#8dd3c7" stroke="#000000" points="1155.3585,-187 1152.3585,-191 1131.3585,-191 1128.3585,-187 1016.6415,-187 1016.6415,-151 1155.3585,-151 1155.3585,-187"/>
<text text-anchor="middle" x="1086" y="-164.8" font-family="Times,serif" font-size="14.00" fill="#000000">SearchResultsModule</text>
</g>
<!-- CategoryListComponent&#45;&gt;SearchResultsModule -->
<g id="edge1" class="edge">
<title>CategoryListComponent&#45;&gt;SearchResultsModule</title>
<path fill="none" stroke="#000000" d="M1972,-122.0908C1972,-145.1328 1972,-182 1972,-182 1972,-182 1165.5229,-182 1165.5229,-182"/>
<polygon fill="#000000" stroke="#000000" points="1165.523,-178.5001 1155.5229,-182 1165.5229,-185.5001 1165.523,-178.5001"/>
</g>
<!-- FilterDialogComponent -->
<g id="node2" class="node">
<title>FilterDialogComponent</title>
<polygon fill="#ffffb3" stroke="#000000" points="1876.7646,-122 1727.2354,-122 1727.2354,-86 1876.7646,-86 1876.7646,-122"/>
<text text-anchor="middle" x="1802" y="-99.8" font-family="Times,serif" font-size="14.00" fill="#000000">FilterDialogComponent</text>
</g>
<!-- FilterDialogComponent&#45;&gt;SearchResultsModule -->
<g id="edge2" class="edge">
<title>FilterDialogComponent&#45;&gt;SearchResultsModule</title>
<path fill="none" stroke="#000000" d="M1802,-122.2843C1802,-143.3211 1802,-175 1802,-175 1802,-175 1165.6299,-175 1165.6299,-175"/>
<polygon fill="#000000" stroke="#000000" points="1165.6299,-171.5001 1155.6299,-175 1165.6299,-178.5001 1165.6299,-171.5001"/>
</g>
<!-- FilterSidenavComponent -->
<g id="node3" class="node">
<title>FilterSidenavComponent</title>
<polygon fill="#ffffb3" stroke="#000000" points="1709.2646,-122 1552.7354,-122 1552.7354,-86 1709.2646,-86 1709.2646,-122"/>
<text text-anchor="middle" x="1631" y="-99.8" font-family="Times,serif" font-size="14.00" fill="#000000">FilterSidenavComponent</text>
</g>
<!-- FilterSidenavComponent&#45;&gt;SearchResultsModule -->
<g id="edge3" class="edge">
<title>FilterSidenavComponent&#45;&gt;SearchResultsModule</title>
<path fill="none" stroke="#000000" d="M1631,-122.1061C1631,-141.3391 1631,-169 1631,-169 1631,-169 1165.5782,-169 1165.5782,-169"/>
<polygon fill="#000000" stroke="#000000" points="1165.5782,-165.5001 1155.5782,-169 1165.5782,-172.5001 1165.5782,-165.5001"/>
</g>
<!-- MatTagsComponent -->
<g id="node4" class="node">
<title>MatTagsComponent</title>
<polygon fill="#ffffb3" stroke="#000000" points="1534.594,-122 1403.406,-122 1403.406,-86 1534.594,-86 1534.594,-122"/>
<text text-anchor="middle" x="1469" y="-99.8" font-family="Times,serif" font-size="14.00" fill="#000000">MatTagsComponent</text>
</g>
<!-- MatTagsComponent&#45;&gt;SearchResultsModule -->
<g id="edge4" class="edge">
<title>MatTagsComponent&#45;&gt;SearchResultsModule</title>
<path fill="none" stroke="#000000" d="M1469,-122.0225C1469,-139.3734 1469,-163 1469,-163 1469,-163 1165.8028,-163 1165.8028,-163"/>
<polygon fill="#000000" stroke="#000000" points="1165.8028,-159.5001 1155.8028,-163 1165.8027,-166.5001 1165.8028,-159.5001"/>
</g>
<!-- OrderbySwitcherComponent -->
<g id="node5" class="node">
<title>OrderbySwitcherComponent</title>
<polygon fill="#ffffb3" stroke="#000000" points="1385.7352,-122 1208.2648,-122 1208.2648,-86 1385.7352,-86 1385.7352,-122"/>
<text text-anchor="middle" x="1297" y="-99.8" font-family="Times,serif" font-size="14.00" fill="#000000">OrderbySwitcherComponent</text>
</g>
<!-- OrderbySwitcherComponent&#45;&gt;SearchResultsModule -->
<g id="edge5" class="edge">
<title>OrderbySwitcherComponent&#45;&gt;SearchResultsModule</title>
<path fill="none" stroke="#000000" d="M1297,-122.2396C1297,-137.5706 1297,-157 1297,-157 1297,-157 1165.3815,-157 1165.3815,-157"/>
<polygon fill="#000000" stroke="#000000" points="1165.3816,-153.5001 1155.3815,-157 1165.3815,-160.5001 1165.3816,-153.5001"/>
</g>
<!-- ResearchActivityInputComponent -->
<g id="node6" class="node">
<title>ResearchActivityInputComponent</title>
<polygon fill="#ffffb3" stroke="#000000" points="1190.0674,-122 981.9326,-122 981.9326,-86 1190.0674,-86 1190.0674,-122"/>
<text text-anchor="middle" x="1086" y="-99.8" font-family="Times,serif" font-size="14.00" fill="#000000">ResearchActivityInputComponent</text>
</g>
<!-- ResearchActivityInputComponent&#45;&gt;SearchResultsModule -->
<g id="edge6" class="edge">
<title>ResearchActivityInputComponent&#45;&gt;SearchResultsModule</title>
<path fill="none" stroke="#000000" d="M1086,-122.1061C1086,-122.1061 1086,-140.991 1086,-140.991"/>
<polygon fill="#000000" stroke="#000000" points="1082.5001,-140.9909 1086,-150.991 1089.5001,-140.991 1082.5001,-140.9909"/>
</g>
<!-- SearchFiltersComponent -->
<g id="node7" class="node">
<title>SearchFiltersComponent</title>
<polygon fill="#ffffb3" stroke="#000000" points="963.6937,-122 808.3063,-122 808.3063,-86 963.6937,-86 963.6937,-122"/>
<text text-anchor="middle" x="886" y="-99.8" font-family="Times,serif" font-size="14.00" fill="#000000">SearchFiltersComponent</text>
</g>
<!-- SearchFiltersComponent&#45;&gt;SearchResultsModule -->
<g id="edge7" class="edge">
<title>SearchFiltersComponent&#45;&gt;SearchResultsModule</title>
<path fill="none" stroke="#000000" d="M886,-122.2396C886,-137.5706 886,-157 886,-157 886,-157 1006.611,-157 1006.611,-157"/>
<polygon fill="#000000" stroke="#000000" points="1006.611,-160.5001 1016.611,-157 1006.611,-153.5001 1006.611,-160.5001"/>
</g>
<!-- SearchResultsComponent -->
<g id="node8" class="node">
<title>SearchResultsComponent</title>
<polygon fill="#ffffb3" stroke="#000000" points="790.1414,-122 629.8586,-122 629.8586,-86 790.1414,-86 790.1414,-122"/>
<text text-anchor="middle" x="710" y="-99.8" font-family="Times,serif" font-size="14.00" fill="#000000">SearchResultsComponent</text>
</g>
<!-- SearchResultsComponent&#45;&gt;SearchResultsModule -->
<g id="edge8" class="edge">
<title>SearchResultsComponent&#45;&gt;SearchResultsModule</title>
<path fill="none" stroke="#000000" d="M710,-122.0225C710,-139.3734 710,-163 710,-163 710,-163 1006.5976,-163 1006.5976,-163"/>
<polygon fill="#000000" stroke="#000000" points="1006.5977,-166.5001 1016.5976,-163 1006.5976,-159.5001 1006.5977,-166.5001"/>
</g>
<!-- ViewSwitcherComponent -->
<g id="node9" class="node">
<title>ViewSwitcherComponent</title>
<polygon fill="#ffffb3" stroke="#000000" points="611.9115,-122 450.0885,-122 450.0885,-86 611.9115,-86 611.9115,-122"/>
<text text-anchor="middle" x="531" y="-99.8" font-family="Times,serif" font-size="14.00" fill="#000000">ViewSwitcherComponent</text>
</g>
<!-- ViewSwitcherComponent&#45;&gt;SearchResultsModule -->
<g id="edge9" class="edge">
<title>ViewSwitcherComponent&#45;&gt;SearchResultsModule</title>
<path fill="none" stroke="#000000" d="M531,-122.1061C531,-141.3391 531,-169 531,-169 531,-169 1006.5512,-169 1006.5512,-169"/>
<polygon fill="#000000" stroke="#000000" points="1006.5512,-172.5001 1016.5512,-169 1006.5511,-165.5001 1006.5512,-172.5001"/>
</g>
<!-- SharedModule -->
<g id="node11" class="node">
<title>SharedModule</title>
<polygon fill="#8dd3c7" stroke="#000000" points="426.4231,-122 423.4231,-126 402.4231,-126 399.4231,-122 327.5769,-122 327.5769,-86 426.4231,-86 426.4231,-122"/>
<text text-anchor="middle" x="377" y="-99.8" font-family="Times,serif" font-size="14.00" fill="#000000">SharedModule</text>
</g>
<!-- SharedModule&#45;&gt;SearchResultsModule -->
<g id="edge10" class="edge">
<title>SharedModule&#45;&gt;SearchResultsModule</title>
<path fill="none" stroke="#000000" d="M377,-122.2843C377,-143.3211 377,-175 377,-175 377,-175 1006.4029,-175 1006.4029,-175"/>
<polygon fill="#000000" stroke="#000000" points="1006.4029,-178.5001 1016.4029,-175 1006.4029,-171.5001 1006.4029,-178.5001"/>
</g>
<!-- SearchResultsComponentService -->
<g id="node12" class="node">
<title>SearchResultsComponentService</title>
<ellipse fill="#fdb462" stroke="#000000" cx="164" cy="-104" rx="139.5256" ry="18"/>
<text text-anchor="middle" x="164" y="-99.8" font-family="Times,serif" font-size="14.00" fill="#000000">SearchResultsComponentService</text>
</g>
<!-- SearchResultsComponentService&#45;&gt;SearchResultsModule -->
<g id="edge11" class="edge">
<title>SearchResultsComponentService&#45;&gt;SearchResultsModule</title>
<path fill="none" stroke="#000000" d="M164,-122.0908C164,-145.1328 164,-182 164,-182 164,-182 1006.3222,-182 1006.3222,-182"/>
<polygon fill="#000000" stroke="#000000" points="1006.3222,-185.5001 1016.3222,-182 1006.3222,-178.5001 1006.3222,-185.5001"/>
</g>
</g>
</svg>
