<?xml version="1.0" encoding="UTF-8" standalone="no"?>
<!DOCTYPE svg PUBLIC "-//W3C//DTD SVG 1.1//EN"
 "http://www.w3.org/Graphics/SVG/1.1/DTD/svg11.dtd">
<!-- Generated by graphviz version 2.40.1 (20161225.0304)
 -->
<!-- Title: dependencies Pages: 1 -->
<svg width="1055pt" height="211pt"
 viewBox="0.00 0.00 1055.00 211.00" xmlns="http://www.w3.org/2000/svg" xmlns:xlink="http://www.w3.org/1999/xlink">
<g id="graph0" class="graph" transform="scale(1 1) rotate(0) translate(4 207)">
<title>dependencies</title>
<polygon fill="#ffffff" stroke="transparent" points="-4,4 -4,-207 1051,-207 1051,4 -4,4"/>
<text text-anchor="start" x="502.5091" y="-42.4" font-family="sans-serif" font-weight="bold" font-size="14.00" fill="#000000">Legend</text>
<polygon fill="#ffffb3" stroke="transparent" points="289.5,-10 289.5,-30 309.5,-30 309.5,-10 289.5,-10"/>
<text text-anchor="start" x="313.129" y="-15.4" font-family="sans-serif" font-size="14.00" fill="#000000"> &#160;Declarations</text>
<polygon fill="#8dd3c7" stroke="transparent" points="402.5,-10 402.5,-30 422.5,-30 422.5,-10 402.5,-10"/>
<text text-anchor="start" x="426.2251" y="-15.4" font-family="sans-serif" font-size="14.00" fill="#000000"> &#160;Module</text>
<polygon fill="#80b1d3" stroke="transparent" points="488.5,-10 488.5,-30 508.5,-30 508.5,-10 488.5,-10"/>
<text text-anchor="start" x="512.2812" y="-15.4" font-family="sans-serif" font-size="14.00" fill="#000000"> &#160;Bootstrap</text>
<polygon fill="#fdb462" stroke="transparent" points="585.5,-10 585.5,-30 605.5,-30 605.5,-10 585.5,-10"/>
<text text-anchor="start" x="609.1732" y="-15.4" font-family="sans-serif" font-size="14.00" fill="#000000"> &#160;Providers</text>
<polygon fill="#fb8072" stroke="transparent" points="681.5,-10 681.5,-30 701.5,-30 701.5,-10 681.5,-10"/>
<text text-anchor="start" x="705.2258" y="-15.4" font-family="sans-serif" font-size="14.00" fill="#000000"> &#160;Exports</text>
<g id="clust1" class="cluster">
<title>cluster_SearchResultsModule</title>
<polygon fill="none" stroke="#000000" stroke-dasharray="1,5" points="8,-70 8,-195 1039,-195 1039,-70 8,-70"/>
</g>
<g id="clust2" class="cluster">
<title>cluster_SearchResultsModule_declarations</title>
<polygon fill="none" stroke="#000000" points="138,-78 138,-130 1031,-130 1031,-78 138,-78"/>
</g>
<g id="clust8" class="cluster">
<title>cluster_SearchResultsModule_imports</title>
<polygon fill="none" stroke="#000000" points="16,-78 16,-130 130,-130 130,-78 16,-78"/>
</g>
<!-- FilterDialogComponent -->
<g id="node1" class="node">
<title>FilterDialogComponent</title>
<polygon fill="#ffffb3" stroke="#000000" points="1022.7646,-122 873.2354,-122 873.2354,-86 1022.7646,-86 1022.7646,-122"/>
<text text-anchor="middle" x="948" y="-99.8" font-family="Times,serif" font-size="14.00" fill="#000000">FilterDialogComponent</text>
</g>
<!-- SearchResultsModule -->
<g id="node6" class="node">
<title>SearchResultsModule</title>
<polygon fill="#8dd3c7" stroke="#000000" points="571.3585,-187 568.3585,-191 547.3585,-191 544.3585,-187 432.6415,-187 432.6415,-151 571.3585,-151 571.3585,-187"/>
<text text-anchor="middle" x="502" y="-164.8" font-family="Times,serif" font-size="14.00" fill="#000000">SearchResultsModule</text>
</g>
<!-- FilterDialogComponent&#45;&gt;SearchResultsModule -->
<g id="edge1" class="edge">
<title>FilterDialogComponent&#45;&gt;SearchResultsModule</title>
<path fill="none" stroke="#000000" d="M948,-122.2843C948,-143.3211 948,-175 948,-175 948,-175 581.6875,-175 581.6875,-175"/>
<polygon fill="#000000" stroke="#000000" points="581.6875,-171.5001 571.6875,-175 581.6875,-178.5001 581.6875,-171.5001"/>
</g>
<!-- MatTagsComponent -->
<g id="node2" class="node">
<title>MatTagsComponent</title>
<polygon fill="#ffffb3" stroke="#000000" points="855.594,-122 724.406,-122 724.406,-86 855.594,-86 855.594,-122"/>
<text text-anchor="middle" x="790" y="-99.8" font-family="Times,serif" font-size="14.00" fill="#000000">MatTagsComponent</text>
</g>
<!-- MatTagsComponent&#45;&gt;SearchResultsModule -->
<g id="edge2" class="edge">
<title>MatTagsComponent&#45;&gt;SearchResultsModule</title>
<path fill="none" stroke="#000000" d="M790,-122.0225C790,-139.3734 790,-163 790,-163 790,-163 581.7168,-163 581.7168,-163"/>
<polygon fill="#000000" stroke="#000000" points="581.7168,-159.5001 571.7168,-163 581.7167,-166.5001 581.7168,-159.5001"/>
</g>
<!-- ResearchActivityInputComponent -->
<g id="node3" class="node">
<title>ResearchActivityInputComponent</title>
<polygon fill="#ffffb3" stroke="#000000" points="706.0674,-122 497.9326,-122 497.9326,-86 706.0674,-86 706.0674,-122"/>
<text text-anchor="middle" x="602" y="-99.8" font-family="Times,serif" font-size="14.00" fill="#000000">ResearchActivityInputComponent</text>
</g>
<!-- ResearchActivityInputComponent&#45;&gt;SearchResultsModule -->
<g id="edge3" class="edge">
<title>ResearchActivityInputComponent&#45;&gt;SearchResultsModule</title>
<path fill="none" stroke="#000000" d="M534.6978,-122.1061C534.6978,-122.1061 534.6978,-140.991 534.6978,-140.991"/>
<polygon fill="#000000" stroke="#000000" points="531.1978,-140.9909 534.6978,-150.991 538.1978,-140.991 531.1978,-140.9909"/>
</g>
<!-- SearchFiltersComponent -->
<g id="node4" class="node">
<title>SearchFiltersComponent</title>
<polygon fill="#ffffb3" stroke="#000000" points="479.6937,-122 324.3063,-122 324.3063,-86 479.6937,-86 479.6937,-122"/>
<text text-anchor="middle" x="402" y="-99.8" font-family="Times,serif" font-size="14.00" fill="#000000">SearchFiltersComponent</text>
</g>
<!-- SearchFiltersComponent&#45;&gt;SearchResultsModule -->
<g id="edge4" class="edge">
<title>SearchFiltersComponent&#45;&gt;SearchResultsModule</title>
<path fill="none" stroke="#000000" d="M456.0838,-122.1061C456.0838,-122.1061 456.0838,-140.991 456.0838,-140.991"/>
<polygon fill="#000000" stroke="#000000" points="452.5839,-140.9909 456.0838,-150.991 459.5839,-140.991 452.5839,-140.9909"/>
</g>
<!-- SearchResultsComponent -->
<g id="node5" class="node">
<title>SearchResultsComponent</title>
<polygon fill="#ffffb3" stroke="#000000" points="306.1414,-122 145.8586,-122 145.8586,-86 306.1414,-86 306.1414,-122"/>
<text text-anchor="middle" x="226" y="-99.8" font-family="Times,serif" font-size="14.00" fill="#000000">SearchResultsComponent</text>
</g>
<!-- SearchResultsComponent&#45;&gt;SearchResultsModule -->
<g id="edge5" class="edge">
<title>SearchResultsComponent&#45;&gt;SearchResultsModule</title>
<path fill="none" stroke="#000000" d="M226,-122.0225C226,-139.3734 226,-163 226,-163 226,-163 422.3535,-163 422.3535,-163"/>
<polygon fill="#000000" stroke="#000000" points="422.3536,-166.5001 432.3535,-163 422.3535,-159.5001 422.3536,-166.5001"/>
</g>
<!-- SharedModule -->
<g id="node7" class="node">
<title>SharedModule</title>
<polygon fill="#8dd3c7" stroke="#000000" points="122.4231,-122 119.4231,-126 98.4231,-126 95.4231,-122 23.5769,-122 23.5769,-86 122.4231,-86 122.4231,-122"/>
<text text-anchor="middle" x="73" y="-99.8" font-family="Times,serif" font-size="14.00" fill="#000000">SharedModule</text>
</g>
<!-- SharedModule&#45;&gt;SearchResultsModule -->
<g id="edge6" class="edge">
<title>SharedModule&#45;&gt;SearchResultsModule</title>
<path fill="none" stroke="#000000" d="M73,-122.2843C73,-143.3211 73,-175 73,-175 73,-175 422.5969,-175 422.5969,-175"/>
<polygon fill="#000000" stroke="#000000" points="422.597,-178.5001 432.5969,-175 422.5969,-171.5001 422.597,-178.5001"/>
</g>
</g>
</svg>
