<?xml version="1.0" encoding="UTF-8" standalone="no"?>
<!DOCTYPE svg PUBLIC "-//W3C//DTD SVG 1.1//EN"
 "http://www.w3.org/Graphics/SVG/1.1/DTD/svg11.dtd">
<!-- Generated by graphviz version 2.40.1 (20161225.0304)
 -->
<!-- Title: dependencies Pages: 1 -->
<svg width="780pt" height="211pt"
 viewBox="0.00 0.00 780.00 211.00" xmlns="http://www.w3.org/2000/svg" xmlns:xlink="http://www.w3.org/1999/xlink">
<g id="graph0" class="graph" transform="scale(1 1) rotate(0) translate(4 207)">
<title>dependencies</title>
<polygon fill="#ffffff" stroke="transparent" points="-4,4 -4,-207 776,-207 776,4 -4,4"/>
<text text-anchor="start" x="365.0091" y="-42.4" font-family="sans-serif" font-weight="bold" font-size="14.00" fill="#000000">Legend</text>
<polygon fill="#ffffb3" stroke="transparent" points="152,-10 152,-30 172,-30 172,-10 152,-10"/>
<text text-anchor="start" x="175.629" y="-15.4" font-family="sans-serif" font-size="14.00" fill="#000000"> &#160;Declarations</text>
<polygon fill="#8dd3c7" stroke="transparent" points="265,-10 265,-30 285,-30 285,-10 265,-10"/>
<text text-anchor="start" x="288.7251" y="-15.4" font-family="sans-serif" font-size="14.00" fill="#000000"> &#160;Module</text>
<polygon fill="#80b1d3" stroke="transparent" points="351,-10 351,-30 371,-30 371,-10 351,-10"/>
<text text-anchor="start" x="374.7812" y="-15.4" font-family="sans-serif" font-size="14.00" fill="#000000"> &#160;Bootstrap</text>
<polygon fill="#fdb462" stroke="transparent" points="448,-10 448,-30 468,-30 468,-10 448,-10"/>
<text text-anchor="start" x="471.6732" y="-15.4" font-family="sans-serif" font-size="14.00" fill="#000000"> &#160;Providers</text>
<polygon fill="#fb8072" stroke="transparent" points="544,-10 544,-30 564,-30 564,-10 544,-10"/>
<text text-anchor="start" x="567.7258" y="-15.4" font-family="sans-serif" font-size="14.00" fill="#000000"> &#160;Exports</text>
<g id="clust1" class="cluster">
<title>cluster_HomeModule</title>
<polygon fill="none" stroke="#000000" stroke-dasharray="1,5" points="8,-70 8,-195 764,-195 764,-70 8,-70"/>
</g>
<g id="clust2" class="cluster">
<title>cluster_HomeModule_declarations</title>
<polygon fill="none" stroke="#000000" points="138,-78 138,-130 756,-130 756,-78 138,-78"/>
</g>
<g id="clust7" class="cluster">
<title>cluster_HomeModule_imports</title>
<polygon fill="none" stroke="#000000" points="16,-78 16,-130 130,-130 130,-78 16,-78"/>
</g>
<!-- BrowseComponent -->
<g id="node1" class="node">
<title>BrowseComponent</title>
<polygon fill="#ffffb3" stroke="#000000" points="748.0954,-122 623.9046,-122 623.9046,-86 748.0954,-86 748.0954,-122"/>
<text text-anchor="middle" x="686" y="-99.8" font-family="Times,serif" font-size="14.00" fill="#000000">BrowseComponent</text>
</g>
<!-- HomeModule -->
<g id="node5" class="node">
<title>HomeModule</title>
<polygon fill="#8dd3c7" stroke="#000000" points="446.7619,-187 443.7619,-191 422.7619,-191 419.7619,-187 353.2381,-187 353.2381,-151 446.7619,-151 446.7619,-187"/>
<text text-anchor="middle" x="400" y="-164.8" font-family="Times,serif" font-size="14.00" fill="#000000">HomeModule</text>
</g>
<!-- BrowseComponent&#45;&gt;HomeModule -->
<g id="edge1" class="edge">
<title>BrowseComponent&#45;&gt;HomeModule</title>
<path fill="none" stroke="#000000" d="M686,-122.2843C686,-143.3211 686,-175 686,-175 686,-175 456.9068,-175 456.9068,-175"/>
<polygon fill="#000000" stroke="#000000" points="456.9069,-171.5001 446.9068,-175 456.9068,-178.5001 456.9069,-171.5001"/>
</g>
<!-- FeaturedComponent -->
<g id="node2" class="node">
<title>FeaturedComponent</title>
<polygon fill="#ffffb3" stroke="#000000" points="606.3104,-122 475.6896,-122 475.6896,-86 606.3104,-86 606.3104,-122"/>
<text text-anchor="middle" x="541" y="-99.8" font-family="Times,serif" font-size="14.00" fill="#000000">FeaturedComponent</text>
</g>
<!-- FeaturedComponent&#45;&gt;HomeModule -->
<g id="edge2" class="edge">
<title>FeaturedComponent&#45;&gt;HomeModule</title>
<path fill="none" stroke="#000000" d="M541,-122.0225C541,-139.3734 541,-163 541,-163 541,-163 456.951,-163 456.951,-163"/>
<polygon fill="#000000" stroke="#000000" points="456.951,-159.5001 446.951,-163 456.9509,-166.5001 456.951,-159.5001"/>
</g>
<!-- HomeComponent -->
<g id="node3" class="node">
<title>HomeComponent</title>
<polygon fill="#ffffb3" stroke="#000000" points="457.5451,-122 342.4549,-122 342.4549,-86 457.5451,-86 457.5451,-122"/>
<text text-anchor="middle" x="400" y="-99.8" font-family="Times,serif" font-size="14.00" fill="#000000">HomeComponent</text>
</g>
<!-- HomeComponent&#45;&gt;HomeModule -->
<g id="edge3" class="edge">
<title>HomeComponent&#45;&gt;HomeModule</title>
<path fill="none" stroke="#000000" d="M400,-122.1061C400,-122.1061 400,-140.991 400,-140.991"/>
<polygon fill="#000000" stroke="#000000" points="396.5001,-140.9909 400,-150.991 403.5001,-140.991 396.5001,-140.9909"/>
</g>
<!-- ResearchActivityComponent -->
<g id="node4" class="node">
<title>ResearchActivityComponent</title>
<polygon fill="#ffffb3" stroke="#000000" points="324.0169,-122 145.9831,-122 145.9831,-86 324.0169,-86 324.0169,-122"/>
<text text-anchor="middle" x="235" y="-99.8" font-family="Times,serif" font-size="14.00" fill="#000000">ResearchActivityComponent</text>
</g>
<!-- ResearchActivityComponent&#45;&gt;HomeModule -->
<g id="edge4" class="edge">
<title>ResearchActivityComponent&#45;&gt;HomeModule</title>
<path fill="none" stroke="#000000" d="M235,-122.0225C235,-139.3734 235,-163 235,-163 235,-163 343.159,-163 343.159,-163"/>
<polygon fill="#000000" stroke="#000000" points="343.159,-166.5001 353.159,-163 343.1589,-159.5001 343.159,-166.5001"/>
</g>
<!-- SharedModule -->
<g id="node6" class="node">
<title>SharedModule</title>
<polygon fill="#8dd3c7" stroke="#000000" points="122.4231,-122 119.4231,-126 98.4231,-126 95.4231,-122 23.5769,-122 23.5769,-86 122.4231,-86 122.4231,-122"/>
<text text-anchor="middle" x="73" y="-99.8" font-family="Times,serif" font-size="14.00" fill="#000000">SharedModule</text>
</g>
<!-- SharedModule&#45;&gt;HomeModule -->
<g id="edge5" class="edge">
<title>SharedModule&#45;&gt;HomeModule</title>
<path fill="none" stroke="#000000" d="M73,-122.2843C73,-143.3211 73,-175 73,-175 73,-175 343.1489,-175 343.1489,-175"/>
<polygon fill="#000000" stroke="#000000" points="343.1489,-178.5001 353.1489,-175 343.1488,-171.5001 343.1489,-178.5001"/>
</g>
</g>
</svg>
