<?xml version="1.0" encoding="UTF-8" standalone="no"?>
<!DOCTYPE svg PUBLIC "-//W3C//DTD SVG 1.1//EN"
 "http://www.w3.org/Graphics/SVG/1.1/DTD/svg11.dtd">
<!-- Generated by graphviz version 2.40.1 (20161225.0304)
 -->
<!-- Title: dependencies Pages: 1 -->
<svg width="1590pt" height="284pt"
 viewBox="0.00 0.00 1590.00 284.00" xmlns="http://www.w3.org/2000/svg" xmlns:xlink="http://www.w3.org/1999/xlink">
<g id="graph0" class="graph" transform="scale(1 1) rotate(0) translate(4 280)">
<title>dependencies</title>
<polygon fill="#ffffff" stroke="transparent" points="-4,4 -4,-280 1586,-280 1586,4 -4,4"/>
<text text-anchor="start" x="770.0091" y="-42.4" font-family="sans-serif" font-weight="bold" font-size="14.00" fill="#000000">Legend</text>
<polygon fill="#ffffb3" stroke="transparent" points="557,-10 557,-30 577,-30 577,-10 557,-10"/>
<text text-anchor="start" x="580.629" y="-15.4" font-family="sans-serif" font-size="14.00" fill="#000000"> &#160;Declarations</text>
<polygon fill="#8dd3c7" stroke="transparent" points="670,-10 670,-30 690,-30 690,-10 670,-10"/>
<text text-anchor="start" x="693.7251" y="-15.4" font-family="sans-serif" font-size="14.00" fill="#000000"> &#160;Module</text>
<polygon fill="#80b1d3" stroke="transparent" points="756,-10 756,-30 776,-30 776,-10 756,-10"/>
<text text-anchor="start" x="779.7812" y="-15.4" font-family="sans-serif" font-size="14.00" fill="#000000"> &#160;Bootstrap</text>
<polygon fill="#fdb462" stroke="transparent" points="853,-10 853,-30 873,-30 873,-10 853,-10"/>
<text text-anchor="start" x="876.6732" y="-15.4" font-family="sans-serif" font-size="14.00" fill="#000000"> &#160;Providers</text>
<polygon fill="#fb8072" stroke="transparent" points="949,-10 949,-30 969,-30 969,-10 949,-10"/>
<text text-anchor="start" x="972.7258" y="-15.4" font-family="sans-serif" font-size="14.00" fill="#000000"> &#160;Exports</text>
<g id="clust1" class="cluster">
<title>cluster_AppModule</title>
<polygon fill="none" stroke="#000000" stroke-dasharray="1,5" points="8,-70 8,-268 1574,-268 1574,-70 8,-70"/>
</g>
<g id="clust2" class="cluster">
<title>cluster_AppModule_declarations</title>
<polygon fill="none" stroke="#000000" points="1146,-78 1146,-130 1566,-130 1566,-78 1146,-78"/>
</g>
<g id="clust6" class="cluster">
<title>cluster_AppModule_imports</title>
<polygon fill="none" stroke="#000000" points="776,-78 776,-130 1138,-130 1138,-78 776,-78"/>
</g>
<g id="clust8" class="cluster">
<title>cluster_AppModule_bootstrap</title>
<polygon fill="none" stroke="#000000" points="831,-208 831,-260 955,-260 955,-208 831,-208"/>
</g>
<g id="clust9" class="cluster">
<title>cluster_AppModule_providers</title>
<polygon fill="none" stroke="#000000" points="16,-78 16,-130 768,-130 768,-78 16,-78"/>
</g>
<!-- AppComponent -->
<g id="node1" class="node">
<title>AppComponent</title>
<polygon fill="#ffffb3" stroke="#000000" points="1557.9399,-122 1452.0601,-122 1452.0601,-86 1557.9399,-86 1557.9399,-122"/>
<text text-anchor="middle" x="1505" y="-99.8" font-family="Times,serif" font-size="14.00" fill="#000000">AppComponent</text>
</g>
<!-- AppModule -->
<g id="node4" class="node">
<title>AppModule</title>
<polygon fill="#8dd3c7" stroke="#000000" points="934.6571,-187 931.6571,-191 910.6571,-191 907.6571,-187 851.3429,-187 851.3429,-151 934.6571,-151 934.6571,-187"/>
<text text-anchor="middle" x="893" y="-164.8" font-family="Times,serif" font-size="14.00" fill="#000000">AppModule</text>
</g>
<!-- AppComponent&#45;&gt;AppModule -->
<g id="edge1" class="edge">
<title>AppComponent&#45;&gt;AppModule</title>
<path fill="none" stroke="#000000" d="M1505,-122.0109C1505,-144.4852 1505,-180 1505,-180 1505,-180 945.0652,-180 945.0652,-180"/>
<polygon fill="#000000" stroke="#000000" points="945.0653,-176.5001 935.0652,-180 945.0652,-183.5001 945.0653,-176.5001"/>
</g>
<!-- HeaderComponent -->
<g id="node2" class="node">
<title>HeaderComponent</title>
<polygon fill="#ffffb3" stroke="#000000" points="1433.7437,-122 1312.2563,-122 1312.2563,-86 1433.7437,-86 1433.7437,-122"/>
<text text-anchor="middle" x="1373" y="-99.8" font-family="Times,serif" font-size="14.00" fill="#000000">HeaderComponent</text>
</g>
<!-- HeaderComponent&#45;&gt;AppModule -->
<g id="edge2" class="edge">
<title>HeaderComponent&#45;&gt;AppModule</title>
<path fill="none" stroke="#000000" d="M1373,-122.1289C1373,-142.5724 1373,-173 1373,-173 1373,-173 944.7572,-173 944.7572,-173"/>
<polygon fill="#000000" stroke="#000000" points="944.7572,-169.5001 934.7572,-173 944.7571,-176.5001 944.7572,-169.5001"/>
</g>
<!-- SearchBarComponent -->
<g id="node3" class="node">
<title>SearchBarComponent</title>
<polygon fill="#ffffb3" stroke="#000000" points="1293.6317,-122 1154.3683,-122 1154.3683,-86 1293.6317,-86 1293.6317,-122"/>
<text text-anchor="middle" x="1224" y="-99.8" font-family="Times,serif" font-size="14.00" fill="#000000">SearchBarComponent</text>
</g>
<!-- SearchBarComponent&#45;&gt;AppModule -->
<g id="edge3" class="edge">
<title>SearchBarComponent&#45;&gt;AppModule</title>
<path fill="none" stroke="#000000" d="M1224,-122.2667C1224,-140.5552 1224,-166 1224,-166 1224,-166 944.9214,-166 944.9214,-166"/>
<polygon fill="#000000" stroke="#000000" points="944.9214,-162.5001 934.9214,-166 944.9213,-169.5001 944.9214,-162.5001"/>
</g>
<!-- AppComponent  -->
<g id="node8" class="node">
<title>AppComponent </title>
<polygon fill="#80b1d3" stroke="#000000" points="947.439,-252 838.561,-252 838.561,-216 947.439,-216 947.439,-252"/>
<text text-anchor="middle" x="893" y="-229.8" font-family="Times,serif" font-size="14.00" fill="#000000">AppComponent </text>
</g>
<!-- AppModule&#45;&gt;AppComponent  -->
<g id="edge7" class="edge">
<title>AppModule&#45;&gt;AppComponent </title>
<path fill="none" stroke="#000000" stroke-dasharray="1,5" d="M893,-187.1061C893,-187.1061 893,-205.991 893,-205.991"/>
<polygon fill="#000000" stroke="#000000" points="889.5001,-205.9909 893,-215.991 896.5001,-205.991 889.5001,-205.9909"/>
</g>
<!-- RoutingModule -->
<g id="node5" class="node">
<title>RoutingModule</title>
<polygon fill="#8dd3c7" stroke="#000000" points="1130.1681,-122 1127.1681,-126 1106.1681,-126 1103.1681,-122 1025.8319,-122 1025.8319,-86 1130.1681,-86 1130.1681,-122"/>
<text text-anchor="middle" x="1078" y="-99.8" font-family="Times,serif" font-size="14.00" fill="#000000">RoutingModule</text>
</g>
<!-- RoutingModule&#45;&gt;AppModule -->
<g id="edge4" class="edge">
<title>RoutingModule&#45;&gt;AppModule</title>
<path fill="none" stroke="#000000" d="M1078,-122.0091C1078,-138.0494 1078,-159 1078,-159 1078,-159 944.9794,-159 944.9794,-159"/>
<polygon fill="#000000" stroke="#000000" points="944.9794,-155.5001 934.9794,-159 944.9793,-162.5001 944.9794,-155.5001"/>
</g>
<!-- ServicesModule -->
<g id="node6" class="node">
<title>ServicesModule</title>
<polygon fill="#8dd3c7" stroke="#000000" points="1007.472,-122 1004.472,-126 983.472,-126 980.472,-122 900.528,-122 900.528,-86 1007.472,-86 1007.472,-122"/>
<text text-anchor="middle" x="954" y="-99.8" font-family="Times,serif" font-size="14.00" fill="#000000">ServicesModule</text>
</g>
<!-- ServicesModule&#45;&gt;AppModule -->
<g id="edge5" class="edge">
<title>ServicesModule&#45;&gt;AppModule</title>
<path fill="none" stroke="#000000" d="M917.6711,-122.1061C917.6711,-122.1061 917.6711,-140.991 917.6711,-140.991"/>
<polygon fill="#000000" stroke="#000000" points="914.1712,-140.9909 917.6711,-150.991 921.1712,-140.991 914.1712,-140.9909"/>
</g>
<!-- SharedModule -->
<g id="node7" class="node">
<title>SharedModule</title>
<polygon fill="#8dd3c7" stroke="#000000" points="882.4231,-122 879.4231,-126 858.4231,-126 855.4231,-122 783.5769,-122 783.5769,-86 882.4231,-86 882.4231,-122"/>
<text text-anchor="middle" x="833" y="-99.8" font-family="Times,serif" font-size="14.00" fill="#000000">SharedModule</text>
</g>
<!-- SharedModule&#45;&gt;AppModule -->
<g id="edge6" class="edge">
<title>SharedModule&#45;&gt;AppModule</title>
<path fill="none" stroke="#000000" d="M866.6915,-122.1061C866.6915,-122.1061 866.6915,-140.991 866.6915,-140.991"/>
<polygon fill="#000000" stroke="#000000" points="863.1915,-140.9909 866.6915,-150.991 870.1915,-140.991 863.1915,-140.9909"/>
</g>
<!-- AppComponentService -->
<g id="node9" class="node">
<title>AppComponentService</title>
<ellipse fill="#fdb462" stroke="#000000" cx="658" cy="-104" rx="101.8709" ry="18"/>
<text text-anchor="middle" x="658" y="-99.8" font-family="Times,serif" font-size="14.00" fill="#000000">AppComponentService</text>
</g>
<!-- AppComponentService&#45;&gt;AppModule -->
<g id="edge8" class="edge">
<title>AppComponentService&#45;&gt;AppModule</title>
<path fill="none" stroke="#000000" d="M658,-122.0091C658,-138.0494 658,-159 658,-159 658,-159 841.2575,-159 841.2575,-159"/>
<polygon fill="#000000" stroke="#000000" points="841.2575,-162.5001 851.2575,-159 841.2575,-155.5001 841.2575,-162.5001"/>
</g>
<!-- HeaderService -->
<g id="node10" class="node">
<title>HeaderService</title>
<ellipse fill="#fdb462" stroke="#000000" cx="470" cy="-104" rx="67.7336" ry="18"/>
<text text-anchor="middle" x="470" y="-99.8" font-family="Times,serif" font-size="14.00" fill="#000000">HeaderService</text>
</g>
<!-- HeaderService&#45;&gt;AppModule -->
<g id="edge9" class="edge">
<title>HeaderService&#45;&gt;AppModule</title>
<path fill="none" stroke="#000000" d="M470,-122.2667C470,-140.5552 470,-166 470,-166 470,-166 841.2835,-166 841.2835,-166"/>
<polygon fill="#000000" stroke="#000000" points="841.2835,-169.5001 851.2835,-166 841.2834,-162.5001 841.2835,-169.5001"/>
</g>
<!-- SearchBarService -->
<g id="node11" class="node">
<title>SearchBarService</title>
<ellipse fill="#fdb462" stroke="#000000" cx="304" cy="-104" rx="80.4112" ry="18"/>
<text text-anchor="middle" x="304" y="-99.8" font-family="Times,serif" font-size="14.00" fill="#000000">SearchBarService</text>
</g>
<!-- SearchBarService&#45;&gt;AppModule -->
<g id="edge10" class="edge">
<title>SearchBarService&#45;&gt;AppModule</title>
<path fill="none" stroke="#000000" d="M304,-122.1289C304,-142.5724 304,-173 304,-173 304,-173 841.1128,-173 841.1128,-173"/>
<polygon fill="#000000" stroke="#000000" points="841.1128,-176.5001 851.1128,-173 841.1127,-169.5001 841.1128,-176.5001"/>
</g>
<!-- SearchFiltersService -->
<g id="node12" class="node">
<title>SearchFiltersService</title>
<ellipse fill="#fdb462" stroke="#000000" cx="115" cy="-104" rx="90.88" ry="18"/>
<text text-anchor="middle" x="115" y="-99.8" font-family="Times,serif" font-size="14.00" fill="#000000">SearchFiltersService</text>
</g>
<!-- SearchFiltersService&#45;&gt;AppModule -->
<g id="edge11" class="edge">
<title>SearchFiltersService&#45;&gt;AppModule</title>
<path fill="none" stroke="#000000" d="M115,-122.0109C115,-144.4852 115,-180 115,-180 115,-180 841.1713,-180 841.1713,-180"/>
<polygon fill="#000000" stroke="#000000" points="841.1714,-183.5001 851.1713,-180 841.1713,-176.5001 841.1714,-183.5001"/>
</g>
</g>
</svg>
