<?xml version="1.0" encoding="UTF-8" standalone="no"?>
<!DOCTYPE svg PUBLIC "-//W3C//DTD SVG 1.1//EN"
 "http://www.w3.org/Graphics/SVG/1.1/DTD/svg11.dtd">
<!-- Generated by graphviz version 2.40.1 (20161225.0304)
 -->
<!-- Title: dependencies Pages: 1 -->
<svg width="1390pt" height="284pt"
 viewBox="0.00 0.00 1390.00 284.00" xmlns="http://www.w3.org/2000/svg" xmlns:xlink="http://www.w3.org/1999/xlink">
<g id="graph0" class="graph" transform="scale(1 1) rotate(0) translate(4 280)">
<title>dependencies</title>
<polygon fill="#ffffff" stroke="transparent" points="-4,4 -4,-280 1386,-280 1386,4 -4,4"/>
<text text-anchor="start" x="670.0091" y="-42.4" font-family="sans-serif" font-weight="bold" font-size="14.00" fill="#000000">Legend</text>
<polygon fill="#ffffb3" stroke="transparent" points="457,-10 457,-30 477,-30 477,-10 457,-10"/>
<text text-anchor="start" x="480.629" y="-15.4" font-family="sans-serif" font-size="14.00" fill="#000000"> &#160;Declarations</text>
<polygon fill="#8dd3c7" stroke="transparent" points="570,-10 570,-30 590,-30 590,-10 570,-10"/>
<text text-anchor="start" x="593.7251" y="-15.4" font-family="sans-serif" font-size="14.00" fill="#000000"> &#160;Module</text>
<polygon fill="#80b1d3" stroke="transparent" points="656,-10 656,-30 676,-30 676,-10 656,-10"/>
<text text-anchor="start" x="679.7812" y="-15.4" font-family="sans-serif" font-size="14.00" fill="#000000"> &#160;Bootstrap</text>
<polygon fill="#fdb462" stroke="transparent" points="753,-10 753,-30 773,-30 773,-10 753,-10"/>
<text text-anchor="start" x="776.6732" y="-15.4" font-family="sans-serif" font-size="14.00" fill="#000000"> &#160;Providers</text>
<polygon fill="#fb8072" stroke="transparent" points="849,-10 849,-30 869,-30 869,-10 849,-10"/>
<text text-anchor="start" x="872.7258" y="-15.4" font-family="sans-serif" font-size="14.00" fill="#000000"> &#160;Exports</text>
<g id="clust1" class="cluster">
<title>cluster_AppModule</title>
<polygon fill="none" stroke="#000000" stroke-dasharray="1,5" points="8,-70 8,-268 1374,-268 1374,-70 8,-70"/>
</g>
<g id="clust2" class="cluster">
<title>cluster_AppModule_declarations</title>
<polygon fill="none" stroke="#000000" points="946,-78 946,-130 1366,-130 1366,-78 946,-78"/>
</g>
<g id="clust6" class="cluster">
<title>cluster_AppModule_imports</title>
<polygon fill="none" stroke="#000000" points="576,-78 576,-130 938,-130 938,-78 576,-78"/>
</g>
<g id="clust8" class="cluster">
<title>cluster_AppModule_bootstrap</title>
<polygon fill="none" stroke="#000000" points="692,-208 692,-260 816,-260 816,-208 692,-208"/>
</g>
<g id="clust9" class="cluster">
<title>cluster_AppModule_providers</title>
<polygon fill="none" stroke="#000000" points="16,-78 16,-130 568,-130 568,-78 16,-78"/>
</g>
<!-- AppComponent -->
<g id="node1" class="node">
<title>AppComponent</title>
<polygon fill="#ffffb3" stroke="#000000" points="1357.9399,-122 1252.0601,-122 1252.0601,-86 1357.9399,-86 1357.9399,-122"/>
<text text-anchor="middle" x="1305" y="-99.8" font-family="Times,serif" font-size="14.00" fill="#000000">AppComponent</text>
</g>
<!-- AppModule -->
<g id="node4" class="node">
<title>AppModule</title>
<polygon fill="#8dd3c7" stroke="#000000" points="795.6571,-187 792.6571,-191 771.6571,-191 768.6571,-187 712.3429,-187 712.3429,-151 795.6571,-151 795.6571,-187"/>
<text text-anchor="middle" x="754" y="-164.8" font-family="Times,serif" font-size="14.00" fill="#000000">AppModule</text>
</g>
<!-- AppComponent&#45;&gt;AppModule -->
<g id="edge1" class="edge">
<title>AppComponent&#45;&gt;AppModule</title>
<path fill="none" stroke="#000000" d="M1305,-122.0109C1305,-144.4852 1305,-180 1305,-180 1305,-180 805.8668,-180 805.8668,-180"/>
<polygon fill="#000000" stroke="#000000" points="805.8668,-176.5001 795.8668,-180 805.8668,-183.5001 805.8668,-176.5001"/>
</g>
<!-- HeaderComponent -->
<g id="node2" class="node">
<title>HeaderComponent</title>
<polygon fill="#ffffb3" stroke="#000000" points="1233.7437,-122 1112.2563,-122 1112.2563,-86 1233.7437,-86 1233.7437,-122"/>
<text text-anchor="middle" x="1173" y="-99.8" font-family="Times,serif" font-size="14.00" fill="#000000">HeaderComponent</text>
</g>
<!-- HeaderComponent&#45;&gt;AppModule -->
<g id="edge2" class="edge">
<title>HeaderComponent&#45;&gt;AppModule</title>
<path fill="none" stroke="#000000" d="M1173,-122.1289C1173,-142.5724 1173,-173 1173,-173 1173,-173 805.7072,-173 805.7072,-173"/>
<polygon fill="#000000" stroke="#000000" points="805.7072,-169.5001 795.7072,-173 805.7071,-176.5001 805.7072,-169.5001"/>
</g>
<!-- SearchBarComponent -->
<g id="node3" class="node">
<title>SearchBarComponent</title>
<polygon fill="#ffffb3" stroke="#000000" points="1093.6317,-122 954.3683,-122 954.3683,-86 1093.6317,-86 1093.6317,-122"/>
<text text-anchor="middle" x="1024" y="-99.8" font-family="Times,serif" font-size="14.00" fill="#000000">SearchBarComponent</text>
</g>
<!-- SearchBarComponent&#45;&gt;AppModule -->
<g id="edge3" class="edge">
<title>SearchBarComponent&#45;&gt;AppModule</title>
<path fill="none" stroke="#000000" d="M1024,-122.2667C1024,-140.5552 1024,-166 1024,-166 1024,-166 805.8913,-166 805.8913,-166"/>
<polygon fill="#000000" stroke="#000000" points="805.8913,-162.5001 795.8913,-166 805.8912,-169.5001 805.8913,-162.5001"/>
</g>
<!-- AppComponent  -->
<g id="node8" class="node">
<title>AppComponent </title>
<polygon fill="#80b1d3" stroke="#000000" points="808.439,-252 699.561,-252 699.561,-216 808.439,-216 808.439,-252"/>
<text text-anchor="middle" x="754" y="-229.8" font-family="Times,serif" font-size="14.00" fill="#000000">AppComponent </text>
</g>
<!-- AppModule&#45;&gt;AppComponent  -->
<g id="edge7" class="edge">
<title>AppModule&#45;&gt;AppComponent </title>
<path fill="none" stroke="#000000" stroke-dasharray="1,5" d="M754,-187.1061C754,-187.1061 754,-205.991 754,-205.991"/>
<polygon fill="#000000" stroke="#000000" points="750.5001,-205.9909 754,-215.991 757.5001,-205.991 750.5001,-205.9909"/>
</g>
<!-- RoutingModule -->
<g id="node5" class="node">
<title>RoutingModule</title>
<polygon fill="#8dd3c7" stroke="#000000" points="930.1681,-122 927.1681,-126 906.1681,-126 903.1681,-122 825.8319,-122 825.8319,-86 930.1681,-86 930.1681,-122"/>
<text text-anchor="middle" x="878" y="-99.8" font-family="Times,serif" font-size="14.00" fill="#000000">RoutingModule</text>
</g>
<!-- RoutingModule&#45;&gt;AppModule -->
<g id="edge4" class="edge">
<title>RoutingModule&#45;&gt;AppModule</title>
<path fill="none" stroke="#000000" d="M878,-122.0091C878,-138.0494 878,-159 878,-159 878,-159 805.9807,-159 805.9807,-159"/>
<polygon fill="#000000" stroke="#000000" points="805.9808,-155.5001 795.9807,-159 805.9807,-162.5001 805.9808,-155.5001"/>
</g>
<!-- ServicesModule -->
<g id="node6" class="node">
<title>ServicesModule</title>
<polygon fill="#8dd3c7" stroke="#000000" points="807.472,-122 804.472,-126 783.472,-126 780.472,-122 700.528,-122 700.528,-86 807.472,-86 807.472,-122"/>
<text text-anchor="middle" x="754" y="-99.8" font-family="Times,serif" font-size="14.00" fill="#000000">ServicesModule</text>
</g>
<!-- ServicesModule&#45;&gt;AppModule -->
<g id="edge5" class="edge">
<title>ServicesModule&#45;&gt;AppModule</title>
<path fill="none" stroke="#000000" d="M754,-122.1061C754,-122.1061 754,-140.991 754,-140.991"/>
<polygon fill="#000000" stroke="#000000" points="750.5001,-140.9909 754,-150.991 757.5001,-140.991 750.5001,-140.9909"/>
</g>
<!-- SharedModule -->
<g id="node7" class="node">
<title>SharedModule</title>
<polygon fill="#8dd3c7" stroke="#000000" points="682.4231,-122 679.4231,-126 658.4231,-126 655.4231,-122 583.5769,-122 583.5769,-86 682.4231,-86 682.4231,-122"/>
<text text-anchor="middle" x="633" y="-99.8" font-family="Times,serif" font-size="14.00" fill="#000000">SharedModule</text>
</g>
<!-- SharedModule&#45;&gt;AppModule -->
<g id="edge6" class="edge">
<title>SharedModule&#45;&gt;AppModule</title>
<path fill="none" stroke="#000000" d="M633,-122.0091C633,-138.0494 633,-159 633,-159 633,-159 702.0197,-159 702.0197,-159"/>
<polygon fill="#000000" stroke="#000000" points="702.0197,-162.5001 712.0197,-159 702.0196,-155.5001 702.0197,-162.5001"/>
</g>
<!-- AppComponentService -->
<g id="node9" class="node">
<title>AppComponentService</title>
<ellipse fill="#fdb462" stroke="#000000" cx="458" cy="-104" rx="101.8709" ry="18"/>
<text text-anchor="middle" x="458" y="-99.8" font-family="Times,serif" font-size="14.00" fill="#000000">AppComponentService</text>
</g>
<!-- AppComponentService&#45;&gt;AppModule -->
<g id="edge8" class="edge">
<title>AppComponentService&#45;&gt;AppModule</title>
<path fill="none" stroke="#000000" d="M458,-122.2667C458,-140.5552 458,-166 458,-166 458,-166 702.2182,-166 702.2182,-166"/>
<polygon fill="#000000" stroke="#000000" points="702.2183,-169.5001 712.2182,-166 702.2182,-162.5001 702.2183,-169.5001"/>
</g>
<!-- HeaderService -->
<g id="node10" class="node">
<title>HeaderService</title>
<ellipse fill="#fdb462" stroke="#000000" cx="270" cy="-104" rx="67.7336" ry="18"/>
<text text-anchor="middle" x="270" y="-99.8" font-family="Times,serif" font-size="14.00" fill="#000000">HeaderService</text>
</g>
<!-- HeaderService&#45;&gt;AppModule -->
<g id="edge9" class="edge">
<title>HeaderService&#45;&gt;AppModule</title>
<path fill="none" stroke="#000000" d="M270,-122.1289C270,-142.5724 270,-173 270,-173 270,-173 702.3155,-173 702.3155,-173"/>
<polygon fill="#000000" stroke="#000000" points="702.3156,-176.5001 712.3155,-173 702.3155,-169.5001 702.3156,-176.5001"/>
</g>
<!-- SearchBarService -->
<g id="node11" class="node">
<title>SearchBarService</title>
<ellipse fill="#fdb462" stroke="#000000" cx="104" cy="-104" rx="80.4112" ry="18"/>
<text text-anchor="middle" x="104" y="-99.8" font-family="Times,serif" font-size="14.00" fill="#000000">SearchBarService</text>
</g>
<!-- SearchBarService&#45;&gt;AppModule -->
<g id="edge10" class="edge">
<title>SearchBarService&#45;&gt;AppModule</title>
<path fill="none" stroke="#000000" d="M104,-122.0109C104,-144.4852 104,-180 104,-180 104,-180 701.8525,-180 701.8525,-180"/>
<polygon fill="#000000" stroke="#000000" points="701.8525,-183.5001 711.8525,-180 701.8525,-176.5001 701.8525,-183.5001"/>
</g>
</g>
</svg>
