<svg xmlns="http://www.w3.org/2000/svg" viewBox="0 0 210.37 21.98"><defs><style>.cls-1{fill:#004059;}.cls-2{fill:#fff;}.cls-3{fill:none;stroke:#000;stroke-miterlimit:10;stroke-width:0.25px;}</style></defs><title>hub-logo koru</title><g id="Layer_1" data-name="Layer 1"><line class="cls-1" x1="90.17" y1="12.06" x2="181.34" y2="12.06"/><path class="cls-2" d="M32.26,13.87V21.7H27.93V1.31h5.94Q38,1.31,40,2.82a5.4,5.4,0,0,1,2,4.59,5.41,5.41,0,0,1-1,3.2,6.55,6.55,0,0,1-2.8,2.2l6,8.88h-4.8l-4.87-7.82Zm0-3.51h1.39a5.33,5.33,0,0,0,3-.68,2.44,2.44,0,0,0,1-2.15,2.23,2.23,0,0,0-1-2.06,6.05,6.05,0,0,0-3.09-.61H32.26Z"/><path class="cls-2" d="M53.51,22a8,8,0,0,1-5.88-2.08A7.87,7.87,0,0,1,45.5,14a8.65,8.65,0,0,1,2-6.06,7,7,0,0,1,5.42-2.14A6.87,6.87,0,0,1,58,7.7a7.12,7.12,0,0,1,1.84,5.2V15H49.81a4.09,4.09,0,0,0,1.07,2.83,3.78,3.78,0,0,0,2.82,1,11.69,11.69,0,0,0,2.66-.29A13.32,13.32,0,0,0,59,17.58v3.29a10,10,0,0,1-2.38.83A15,15,0,0,1,53.51,22Zm-.6-13.14a2.7,2.7,0,0,0-2.12.86,4,4,0,0,0-.88,2.43h6a3.55,3.55,0,0,0-.82-2.43A2.79,2.79,0,0,0,52.91,8.84Z"/><path class="cls-2" d="M74.2,17.07a4.29,4.29,0,0,1-1.67,3.65,8.23,8.23,0,0,1-5,1.26,15.65,15.65,0,0,1-2.9-.23,10.94,10.94,0,0,1-2.25-.68V17.56a14.8,14.8,0,0,0,2.67.93,10.81,10.81,0,0,0,2.61.38q2.31,0,2.31-1.34a1.12,1.12,0,0,0-.31-.82A4.45,4.45,0,0,0,68.64,16q-.75-.4-2-.93A12.6,12.6,0,0,1,64,13.68a3.92,3.92,0,0,1-1.23-1.47,4.85,4.85,0,0,1-.38-2A3.7,3.7,0,0,1,64,7a7.85,7.85,0,0,1,4.57-1.14A13,13,0,0,1,74,7l-1.28,3.07q-1.17-.5-2.19-.82A6.88,6.88,0,0,0,68.49,9Q66.6,9,66.6,10a1.2,1.2,0,0,0,.61,1,16.48,16.48,0,0,0,2.66,1.24,12.38,12.38,0,0,1,2.68,1.38,4.09,4.09,0,0,1,1.26,1.48A4.55,4.55,0,0,1,74.2,17.07Z"/><path class="cls-2" d="M84.58,22a8,8,0,0,1-5.88-2.08A7.87,7.87,0,0,1,76.57,14a8.65,8.65,0,0,1,2-6.06,7,7,0,0,1,5.42-2.14A6.87,6.87,0,0,1,89.1,7.7a7.12,7.12,0,0,1,1.84,5.2V15H80.88A4.09,4.09,0,0,0,82,17.79a3.78,3.78,0,0,0,2.82,1,11.69,11.69,0,0,0,2.66-.29,13.32,13.32,0,0,0,2.62-.93v3.29a10,10,0,0,1-2.38.83A15,15,0,0,1,84.58,22ZM84,8.84a2.7,2.7,0,0,0-2.12.86A4,4,0,0,0,81,12.13h6a3.55,3.55,0,0,0-.82-2.43A2.79,2.79,0,0,0,84,8.84Z"/><path class="cls-2" d="M104.3,21.7l-.82-2.12h-.11a6.28,6.28,0,0,1-2.21,1.88,7.14,7.14,0,0,1-3,.52,4.79,4.79,0,0,1-3.53-1.28A4.93,4.93,0,0,1,93.36,17a4.11,4.11,0,0,1,1.74-3.66,10.06,10.06,0,0,1,5.24-1.3L103,12v-.68a2.12,2.12,0,0,0-2.43-2.37,11.05,11.05,0,0,0-4.39,1.13L94.81,7.2a12.67,12.67,0,0,1,6-1.41,7.44,7.44,0,0,1,4.81,1.37,5.05,5.05,0,0,1,1.67,4.16V21.7ZM103,14.47l-1.65.06a5.27,5.27,0,0,0-2.76.67,2.1,2.1,0,0,0-.91,1.87q0,1.8,2.06,1.8a3.27,3.27,0,0,0,2.36-.85,3,3,0,0,0,.89-2.26Z"/><path class="cls-2" d="M120.35,5.81a6.86,6.86,0,0,1,1.44.13l-.32,4a4.89,4.89,0,0,0-1.26-.14,4.51,4.51,0,0,0-3.17,1,3.78,3.78,0,0,0-1.14,2.93V21.7h-4.25V6.11h3.22l.63,2.62h.21a5.86,5.86,0,0,1,2-2.11A4.83,4.83,0,0,1,120.35,5.81Z"/><path class="cls-2" d="M130.66,22q-7.28,0-7.28-8a8.52,8.52,0,0,1,2-6.07A7.43,7.43,0,0,1,131,5.81a10.83,10.83,0,0,1,4.85,1.06l-1.26,3.29q-1-.4-1.87-.66A6,6,0,0,0,131,9.25q-3.32,0-3.32,4.71T131,18.53a7.56,7.56,0,0,0,2.27-.33,8.18,8.18,0,0,0,2.09-1v3.64a6.85,6.85,0,0,1-2.08.91A11.73,11.73,0,0,1,130.66,22Z"/><path class="cls-2" d="M153.41,21.7h-4.25V12.59q0-3.37-2.51-3.37a2.85,2.85,0,0,0-2.58,1.21,7.41,7.41,0,0,0-.79,3.93V21.7H139V0h4.25V4.42q0,.52-.1,2.43l-.1,1.26h.22a4.93,4.93,0,0,1,4.52-2.29A5.53,5.53,0,0,1,152,7.29a5.87,5.87,0,0,1,1.42,4.24Z"/><path class="cls-2" d="M173.92,21.7h-2.57V12.19H160.9V21.7h-2.57V1.31h2.57V9.93h10.46V1.31h2.57Z"/><path class="cls-2" d="M181.52,6.39v9.86a4,4,0,0,0,.83,2.75,3.34,3.34,0,0,0,2.57.9,4.18,4.18,0,0,0,3.43-1.31,6.66,6.66,0,0,0,1.07-4.23v-8H192V21.7h-2.06l-.36-2h-.13a4.5,4.5,0,0,1-1.94,1.7,6.69,6.69,0,0,1-2.91.6,5.85,5.85,0,0,1-4.16-1.32,5.6,5.6,0,0,1-1.4-4.24v-10Z"/><path class="cls-2" d="M204.06,6.14a5.61,5.61,0,0,1,4.67,2.08A9.18,9.18,0,0,1,210.37,14a9.11,9.11,0,0,1-1.67,5.86A5.64,5.64,0,0,1,204.06,22a6.54,6.54,0,0,1-2.76-.56,4.83,4.83,0,0,1-2-1.66h-.2q-.43,1.67-.52,1.94h-1.8V0h2.51V5.27q0,1.58-.14,3.15h.14A5.33,5.33,0,0,1,204.06,6.14Zm-.42,2.08a3.92,3.92,0,0,0-3.32,1.31,7.46,7.46,0,0,0-1,4.43v.11a7.54,7.54,0,0,0,1,4.48,4,4,0,0,0,3.35,1.35,3.45,3.45,0,0,0,3.07-1.51,7.87,7.87,0,0,0,1-4.37,7.6,7.6,0,0,0-1-4.35A3.56,3.56,0,0,0,203.64,8.21Z"/><path class="cls-3" d="M30.12,12.31"/><path class="cls-2" d="M11,0A11,11,0,1,0,22,11,11,11,0,0,0,11,0Zm4.35,6.68c-4.41-2-6.64-.42-8.19.84s-3.38,6.18.27,8,4.75-1.12,4.75-1.12a2.49,2.49,0,0,1-1.68.46,2.57,2.57,0,0,1-2.42-2.3,2.94,2.94,0,0,1,2.51-3.08,3.73,3.73,0,0,1,4.19,3.05c.49,2.39-1.4,6.8-5.51,6.23a7.36,7.36,0,0,1-6.55-7.64A8.26,8.26,0,0,1,7.6,3.53,8.61,8.61,0,0,1,18.23,7a7.76,7.76,0,0,1,1,3.71S17.34,7.62,15.34,6.68Z"/></g></svg>