<svg xmlns="http://www.w3.org/2000/svg" viewBox="0 0 215.24 24"><defs><style>.cls-1{fill:#004059;}.cls-2{fill:#b13462;}.cls-3{fill:#ff8300;}.cls-4{fill:#fff;}.cls-5{fill:#004059;}</style></defs><title>hub-logo</title><g id="Layer_1" data-name="Layer 1"><line class="cls-1" x1="96.6" y1="12.06" x2="187.78" y2="12.06"/><circle class="cls-2" cx="12" cy="12" r="12"/><path class="cls-3" d="M24,12A12,12,0,0,0,12,0V12Z"/><path class="cls-5" d="M0,12A12,12,0,0,0,12,24V12Z"/><path class="cls-4" d="M40.61,14.83V22.5H36.37v-20h5.82q4.07,0,6,1.48a5.3,5.3,0,0,1,2,4.5,5.3,5.3,0,0,1-1,3.14,6.43,6.43,0,0,1-2.75,2.15l5.88,8.71h-4.7l-4.77-7.67Zm0-3.45H42a5.23,5.23,0,0,0,3-.67,2.39,2.39,0,0,0,1-2.11,2.19,2.19,0,0,0-1-2,5.93,5.93,0,0,0-3-.6H40.61Z"/><path class="cls-4" d="M61.44,22.77a7.89,7.89,0,0,1-5.77-2A7.71,7.71,0,0,1,53.6,15,8.48,8.48,0,0,1,55.52,9a6.84,6.84,0,0,1,5.31-2.1,6.73,6.73,0,0,1,5,1.85,7,7,0,0,1,1.8,5.1v2H57.82a4,4,0,0,0,1.05,2.78,3.7,3.7,0,0,0,2.76,1,11.47,11.47,0,0,0,2.61-.29,13.06,13.06,0,0,0,2.57-.92v3.23a9.79,9.79,0,0,1-2.34.81A14.74,14.74,0,0,1,61.44,22.77ZM60.86,9.89a2.64,2.64,0,0,0-2.08.84,3.89,3.89,0,0,0-.86,2.39h5.85A3.48,3.48,0,0,0,63,10.74,2.73,2.73,0,0,0,60.86,9.89Z"/><path class="cls-4" d="M81.73,18a4.21,4.21,0,0,1-1.63,3.58,8.07,8.07,0,0,1-4.89,1.23,15.35,15.35,0,0,1-2.84-.23,10.73,10.73,0,0,1-2.2-.66V18.44a14.51,14.51,0,0,0,2.62.92,10.6,10.6,0,0,0,2.56.37q2.27,0,2.27-1.31a1.1,1.1,0,0,0-.3-.8,4.36,4.36,0,0,0-1-.7q-.74-.39-2-.91a12.36,12.36,0,0,1-2.59-1.37,3.84,3.84,0,0,1-1.2-1.44,4.76,4.76,0,0,1-.38-2A3.63,3.63,0,0,1,71.72,8,7.69,7.69,0,0,1,76.2,6.93a12.72,12.72,0,0,1,5.37,1.2l-1.26,3q-1.15-.49-2.15-.81a6.75,6.75,0,0,0-2-.31q-1.85,0-1.85,1a1.17,1.17,0,0,0,.59,1,16.16,16.16,0,0,0,2.6,1.22,12.14,12.14,0,0,1,2.63,1.35A4,4,0,0,1,81.34,16,4.46,4.46,0,0,1,81.73,18Z"/><path class="cls-4" d="M91.9,22.77a7.89,7.89,0,0,1-5.77-2A7.71,7.71,0,0,1,84.06,15,8.48,8.48,0,0,1,86,9a6.84,6.84,0,0,1,5.31-2.1,6.73,6.73,0,0,1,5,1.85,7,7,0,0,1,1.8,5.1v2H88.28a4,4,0,0,0,1.05,2.78,3.7,3.7,0,0,0,2.76,1,11.47,11.47,0,0,0,2.61-.29,13.06,13.06,0,0,0,2.57-.92v3.23a9.79,9.79,0,0,1-2.34.81A14.74,14.74,0,0,1,91.9,22.77ZM91.32,9.89a2.64,2.64,0,0,0-2.08.84,3.89,3.89,0,0,0-.86,2.39h5.85a3.48,3.48,0,0,0-.81-2.39A2.73,2.73,0,0,0,91.32,9.89Z"/><path class="cls-4" d="M111.24,22.5l-.81-2.08h-.11a6.16,6.16,0,0,1-2.17,1.84,7,7,0,0,1-2.91.51,4.7,4.7,0,0,1-3.47-1.26,4.83,4.83,0,0,1-1.26-3.58,4,4,0,0,1,1.7-3.59,9.86,9.86,0,0,1,5.13-1.28L110,13v-.67A2.08,2.08,0,0,0,107.63,10a10.84,10.84,0,0,0-4.31,1.11l-1.38-2.82a12.43,12.43,0,0,1,5.85-1.38,7.29,7.29,0,0,1,4.72,1.34,5,5,0,0,1,1.64,4.07V22.5ZM110,15.42l-1.61.05a5.17,5.17,0,0,0-2.71.66A2.06,2.06,0,0,0,104.8,18q0,1.76,2,1.76a3.2,3.2,0,0,0,2.32-.83,2.93,2.93,0,0,0,.87-2.21Z"/><path class="cls-4" d="M127,6.93a6.73,6.73,0,0,1,1.41.12L128.07,11a4.79,4.79,0,0,0-1.23-.14,4.42,4.42,0,0,0-3.11,1,3.71,3.71,0,0,0-1.11,2.87V22.5h-4.17V7.21h3.16l.62,2.57h.21a5.75,5.75,0,0,1,1.92-2.07A4.74,4.74,0,0,1,127,6.93Z"/><path class="cls-4" d="M137.09,22.77q-7.14,0-7.14-7.83a8.36,8.36,0,0,1,1.94-6,7.28,7.28,0,0,1,5.56-2.06,10.61,10.61,0,0,1,4.76,1L141,11.19q-1-.4-1.83-.65a5.91,5.91,0,0,0-1.7-.25q-3.25,0-3.25,4.62t3.25,4.48a7.42,7.42,0,0,0,2.23-.32,8,8,0,0,0,2.05-1v3.57a6.72,6.72,0,0,1-2,.89A11.5,11.5,0,0,1,137.09,22.77Z"/><path class="cls-4" d="M159.39,22.5h-4.17V13.57q0-3.31-2.46-3.31a2.8,2.8,0,0,0-2.53,1.19,7.26,7.26,0,0,0-.78,3.86V22.5h-4.17V1.23h4.17V5.56q0,.51-.1,2.38l-.1,1.23h.22a4.83,4.83,0,0,1,4.43-2.24A5.42,5.42,0,0,1,158,8.38a5.76,5.76,0,0,1,1.39,4.16Z"/><path class="cls-4" d="M179.5,22.5H177V13.18H166.73V22.5h-2.52v-20h2.52V11H177V2.51h2.52Z"/><path class="cls-4" d="M187,7.49v9.67a3.87,3.87,0,0,0,.81,2.7,3.27,3.27,0,0,0,2.52.88,4.1,4.1,0,0,0,3.36-1.29,6.53,6.53,0,0,0,1.05-4.14V7.49h2.47v15h-2l-.36-2h-.12a4.41,4.41,0,0,1-1.9,1.67,6.56,6.56,0,0,1-2.86.59,5.73,5.73,0,0,1-4.08-1.3,5.49,5.49,0,0,1-1.37-4.16V7.49Z"/><path class="cls-4" d="M209,7.24a5.5,5.5,0,0,1,4.58,2A9,9,0,0,1,215.24,15a8.93,8.93,0,0,1-1.64,5.75,5.53,5.53,0,0,1-4.55,2,6.42,6.42,0,0,1-2.71-.55,4.73,4.73,0,0,1-1.94-1.63h-.19q-.42,1.64-.51,1.9h-1.76V1.23h2.46V6.39q0,1.55-.14,3.09h.14A5.23,5.23,0,0,1,209,7.24Zm-.41,2a3.84,3.84,0,0,0-3.25,1.29,7.31,7.31,0,0,0-1,4.35V15a7.39,7.39,0,0,0,1,4.4,3.87,3.87,0,0,0,3.29,1.32,3.38,3.38,0,0,0,3-1.48,7.71,7.71,0,0,0,1-4.29,7.45,7.45,0,0,0-1-4.27A3.49,3.49,0,0,0,208.64,9.28Z"/></g></svg>
