<svg id="UoA_Logo" data-name="UoA Logo" xmlns="http://www.w3.org/2000/svg" viewBox="0 0 962.29 147.85"><defs><style>.cls-1{fill:#fff;}.cls-2{fill:#10427a;}</style></defs><title>logo-white</title><g id="g16"><path id="path160" class="cls-1" d="M0,0V65.41c0,15.38,11.49,60.12,64,82.09l.86.36.86-.36c52.47-22,64-66.7,64-82.09V0H0"/><path id="path162" class="cls-2" d="M13.94,43.32h0l-.4-.21a19.43,19.43,0,0,0-9.85-2.67,5.38,5.38,0,0,0-.64,0l-.19,0V65.41c0,.53,1.69,54,62,79.36,60.28-25.37,62-78.83,62-79.36V40.53l-.83,0a19.45,19.45,0,0,0-9.85,2.68,21.11,21.11,0,0,1-21,0,19.76,19.76,0,0,0-19.76,0l-.18.09a21.1,21.1,0,0,1-20.85-.07l-.11-.08a19.8,19.8,0,0,0-19.65,0l-.28.17h0a21.07,21.07,0,0,1-20.33,0"/><path id="path164" class="cls-2" d="M20.92,11.65a8.86,8.86,0,0,1,6.6-3c9.62-.3,14.5,6.91,14.29,12.67-.25,6.57-5.22,8.11-5.9,8.29a6.56,6.56,0,0,0,1,3.35c.07.14.29.31.08.68a4.45,4.45,0,0,1-.28.5.66.66,0,0,0-.06.52,2.16,2.16,0,0,1-.36,1.53,7.25,7.25,0,0,0,.17,2.77c0,.19-.11.2-.23.06A4.35,4.35,0,0,1,35,36.68c-1.16.31-2.51,2-3,3,0,.14-.29.29-.33,0a3.82,3.82,0,0,1,1.62-3.41,3.44,3.44,0,0,0-2.59.52s-.33.17-.12-.13c0-.07.58-1.29,3.08-1.65a11.63,11.63,0,0,0,.77-1.54,8.81,8.81,0,0,0-1.14-3.2,6.54,6.54,0,0,0-3.13,1.12.56.56,0,0,0-.24.46v.54a.94.94,0,0,1-.74.78c-.06.05-2.17.72-3.17,1.2a4.66,4.66,0,0,0-1.62,1.37A3.51,3.51,0,0,1,23,37a2.17,2.17,0,0,0-.89.53,5.76,5.76,0,0,1-.82.75,4.53,4.53,0,0,0-1.23,1.62c-.07.12-.19.27-.19,0s0-.79,0-.79A4.22,4.22,0,0,1,21,37a.93.93,0,0,1-.31-.11c-.77.09-3.18-.12-4.63.58-.11.05-.22,0-.11-.12.27-.36.81-1.76,4.06-1.84,0-.31-1.45-1-2.21-1-.24,0-.1-.13,0-.17a3.46,3.46,0,0,1,3.3.41A7.88,7.88,0,0,1,23,34.2a30.19,30.19,0,0,1,3.23-2.61,2.47,2.47,0,0,1,0-.85l-.08,0a7.39,7.39,0,0,1-1-4.23c-1.87-.18-3.87-1.85-4.93-3.2a7.36,7.36,0,0,1-5.49-4.16C9.81,22.67,6.61,29,6.43,29.25c-.11.09-.18.09-.27,0a4.65,4.65,0,0,1-.47-2.93A40.3,40.3,0,0,1,11.39,17c-.93-5.35,4-7.13,5.91-7.06a4.9,4.9,0,0,1,3.62,1.73h0"/><path id="path166" class="cls-1" d="M14.4,16.55a.8.8,0,1,1,.8-.8A.8.8,0,0,1,14.4,16.55Zm16.14-4.12s-.11,0,0-.09a2.84,2.84,0,0,1,1.75-.75,5.82,5.82,0,0,0-4.7.1l0-.1a4.79,4.79,0,0,1,1.34-1.31,5.75,5.75,0,0,0-4,1.42v-.2a3.89,3.89,0,0,1,1-1.36c-3,.09-5.36,3.91-5.36,3.91s-.52-2.73-3.14-2.73c-1.91-.29-6.2,2.33-4.56,5.88-.76,1.42-3.28,3.62-5.43,8.07,0,.09,0,.06,0,.15,1.94-2.75,4.73-6.29,7.58-8,.29.22,1.93,4.49,5.71,4.73.43.31,2.31,3.47,5.67,3.16,0,.35,0,3.39.61,4.38l.14.18c0-.09,0,0,0,0a12.71,12.71,0,0,1,3.73-2.19A12.72,12.72,0,0,1,32,25a6.24,6.24,0,0,0,5-5.82c.07-3.47-3-7.22-6.52-6.78"/><path id="path168" class="cls-2" d="M61.54,11.65a8.86,8.86,0,0,1,6.6-3c9.62-.3,14.51,6.91,14.28,12.67-.24,6.57-5.22,8.11-5.9,8.29a6.62,6.62,0,0,0,1,3.35c.07.14.29.31.08.68a4,4,0,0,1-.27.5.63.63,0,0,0-.07.52,2.16,2.16,0,0,1-.35,1.53,7.25,7.25,0,0,0,.17,2.77c0,.19-.11.2-.22.06a4.3,4.3,0,0,1-1.23-2.3c-1.18.31-2.53,2-3,3,0,.14-.29.29-.34,0A3.81,3.81,0,0,1,74,36.27a3.45,3.45,0,0,0-2.6.52s-.33.17-.12-.13c0-.07.58-1.29,3.08-1.65a12.43,12.43,0,0,0,.78-1.54A8.73,8.73,0,0,0,74,30.27a6.56,6.56,0,0,0-3.13,1.12.58.58,0,0,0-.24.46v.54c0,.08-.09.57-.74.78-.06.05-2.17.72-3.16,1.2a4.59,4.59,0,0,0-1.63,1.37A3.5,3.5,0,0,1,63.62,37a2.15,2.15,0,0,0-.9.53,5.56,5.56,0,0,1-.83.75,4.58,4.58,0,0,0-1.23,1.62c-.06.12-.18.27-.19,0s0-.79,0-.79A4.26,4.26,0,0,1,61.64,37a.93.93,0,0,1-.32-.11c-.77.09-3.18-.12-4.63.58-.11.05-.21,0-.11-.12.27-.36.81-1.76,4.06-1.84,0-.31-1.45-1-2.21-1-.23,0-.1-.13,0-.17a3.46,3.46,0,0,1,3.3.41,8,8,0,0,1,1.87-.52,31.43,31.43,0,0,1,3.23-2.61,2.6,2.6,0,0,1,0-.85l-.09,0a7.47,7.47,0,0,1-1-4.23c-1.87-.18-3.86-1.85-4.93-3.2a7.36,7.36,0,0,1-5.49-4.16C50.42,22.67,47.22,29,47,29.25c-.11.09-.17.09-.26,0a4.76,4.76,0,0,1-.47-2.93A40.28,40.28,0,0,1,52,17c-.93-5.35,4-7.13,5.91-7.06a4.9,4.9,0,0,1,3.62,1.73h0"/><path id="path170" class="cls-1" d="M55,16.55a.8.8,0,1,1,.8-.8A.8.8,0,0,1,55,16.55Zm16.13-4.12s-.11,0,0-.09a2.89,2.89,0,0,1,1.76-.75,5.82,5.82,0,0,0-4.7.1l0-.1a4.78,4.78,0,0,1,1.33-1.31,5.71,5.71,0,0,0-4,1.42l0-.2a3.94,3.94,0,0,1,1-1.36c-3,.09-5.35,3.91-5.35,3.91s-.52-2.73-3.14-2.73c-1.91-.29-6.2,2.33-4.55,5.88-.76,1.42-3.28,3.62-5.42,8.07,0,.09,0,.06,0,.15,1.93-2.75,4.73-6.29,7.57-8,.29.22,1.94,4.49,5.72,4.73.42.31,2.31,3.47,5.66,3.16,0,.35,0,3.39.62,4.38l.14.18c0-.09,0,0,0,0a12.73,12.73,0,0,1,3.73-2.19A12.93,12.93,0,0,1,72.62,25a6.25,6.25,0,0,0,5.05-5.82c.06-3.47-3-7.22-6.53-6.78"/><path id="path172" class="cls-2" d="M101.89,11.65a8.89,8.89,0,0,1,6.6-3c9.63-.3,14.51,6.91,14.29,12.67-.24,6.57-5.22,8.11-5.9,8.29a6.62,6.62,0,0,0,1,3.35c.07.14.3.31.08.68a4.23,4.23,0,0,1-.27.5.69.69,0,0,0-.07.52,2.13,2.13,0,0,1-.35,1.53,7.39,7.39,0,0,0,.17,2.77c0,.19-.1.2-.22.06a4.28,4.28,0,0,1-1.23-2.3c-1.17.31-2.53,2-3,3,0,.14-.29.29-.33,0a3.79,3.79,0,0,1,1.62-3.41,3.46,3.46,0,0,0-2.6.52s-.32.17-.11-.13c0-.07.58-1.29,3.09-1.65a12,12,0,0,0,.76-1.54,8.52,8.52,0,0,0-1.14-3.2,6.56,6.56,0,0,0-3.13,1.12.57.57,0,0,0-.25.46v.54c0,.08-.09.57-.73.78-.06.05-2.17.72-3.17,1.2a4.65,4.65,0,0,0-1.62,1.37A3.59,3.59,0,0,1,104,37a2.14,2.14,0,0,0-.9.53,5.62,5.62,0,0,1-.82.75A4.54,4.54,0,0,0,101,39.87c-.06.12-.18.27-.19,0a7.78,7.78,0,0,1,0-.79A4.14,4.14,0,0,1,102,37a.92.92,0,0,1-.31-.11c-.77.09-3.18-.12-4.63.58-.11.05-.22,0-.11-.12.27-.36.81-1.76,4.06-1.84,0-.31-1.46-1-2.21-1-.23,0-.09-.13,0-.17a3.46,3.46,0,0,1,3.3.41A8.1,8.1,0,0,1,104,34.2a30.19,30.19,0,0,1,3.23-2.61,2.65,2.65,0,0,1,0-.85l-.09,0a7.43,7.43,0,0,1-1-4.23c-1.87-.18-3.87-1.85-4.93-3.2a7.38,7.38,0,0,1-5.5-4.16c-4.91,3.53-8.11,9.82-8.28,10.11-.11.09-.18.09-.27,0a4.75,4.75,0,0,1-.47-2.93A40.1,40.1,0,0,1,92.37,17c-.93-5.35,4-7.13,5.91-7.06a4.86,4.86,0,0,1,3.61,1.73h0"/><path id="path174" class="cls-1" d="M95.38,16.55a.8.8,0,1,1,.8-.8A.8.8,0,0,1,95.38,16.55Zm16.13-4.12s-.12,0,0-.09a2.87,2.87,0,0,1,1.76-.75,5.82,5.82,0,0,0-4.7.1l0-.1a4.8,4.8,0,0,1,1.33-1.31,5.72,5.72,0,0,0-4,1.42v-.2a3.73,3.73,0,0,1,1-1.36c-3,.09-5.35,3.91-5.35,3.91s-.53-2.73-3.15-2.73c-1.92-.29-6.2,2.33-4.55,5.88-.76,1.42-3.28,3.62-5.42,8.07,0,.09,0,.06,0,.15,1.94-2.75,4.73-6.29,7.58-8,.28.22,1.93,4.49,5.71,4.73.42.31,2.32,3.47,5.67,3.16,0,.35,0,3.39.62,4.38l.14.18c0-.09,0,0,0,0a12.71,12.71,0,0,1,3.74-2.19A12.6,12.6,0,0,1,113,25a6.24,6.24,0,0,0,5-5.82c.06-3.47-3-7.22-6.52-6.78"/><path id="path176" class="cls-1" d="M69.92,105.31l-.93.62,1,.52a2,2,0,0,1-.93,3.69H60.61a2,2,0,0,1-.93-3.69l1-.52-.92-.62a11.86,11.86,0,0,0-6.65-2.06,12.17,12.17,0,0,0-6.71,2.06c-2.29,1.51-4.37,2-8,2a16.72,16.72,0,0,1-11.55-4.22l-.19-.16H24.57l-.2.24a1.6,1.6,0,0,1-1.22.56,1.44,1.44,0,1,1,0-2.87,1.58,1.58,0,0,1,1.23.57l.2.24h2.53V98.63H24.58l-.2.24a1.59,1.59,0,0,1-1.22.56,1.44,1.44,0,1,1,0-2.88,1.58,1.58,0,0,1,1.23.57l.2.24h2.52V94.27H24.59l-.2.24a1.58,1.58,0,0,1-1.23.56,1.44,1.44,0,1,1,0-2.88,1.57,1.57,0,0,1,1.23.57l.2.24h2.51V89.93h-2.5l-.2.24a1.6,1.6,0,0,1-1.23.56,1.44,1.44,0,1,1,0-2.88,1.58,1.58,0,0,1,1.23.57l.2.24h2.5V85.58h-2.5l-.2.24a1.58,1.58,0,0,1-1.22.56,1.44,1.44,0,1,1,0-2.88,1.6,1.6,0,0,1,1.23.57l.2.24h2.49V81.23H24.63l-.2.24a1.59,1.59,0,0,1-1.23.56,1.44,1.44,0,1,1,0-2.88,1.59,1.59,0,0,1,1.23.57l.2.24h2.48V76.89H24.63l-.2.24a1.6,1.6,0,0,1-1.23.56,1.44,1.44,0,1,1,0-2.87,1.59,1.59,0,0,1,1.23.57l.2.24,2,0,2.11-1.06v27.89L29,103c5.79,3.64,11.6,4,16.82,1.06,5.5-3.11,13.22-3.26,17.77,3.35H61.45a.67.67,0,0,0,0,1.34h6.78a.67.67,0,0,0,0-1.34H66.06c4.62-6.72,12.36-6.08,17.79-3.34,4.8,2.43,10.43,2.08,16.73-1l.37-.6V74.57l2.11,1.06,2,0,.2-.24a1.61,1.61,0,0,1,1.24-.57,1.44,1.44,0,1,1,0,2.87,1.62,1.62,0,0,1-1.24-.56l-.2-.23h-2.48V80H105l.2-.24a1.6,1.6,0,0,1,1.24-.57,1.44,1.44,0,1,1,0,2.88,1.61,1.61,0,0,1-1.24-.56l-.2-.24h-2.48v3.08H105l.2-.24a1.57,1.57,0,0,1,1.23-.57,1.44,1.44,0,1,1,0,2.88,1.59,1.59,0,0,1-1.22-.56l-.2-.24h-2.5v3.08h2.5l.2-.24a1.59,1.59,0,0,1,1.23-.57,1.44,1.44,0,1,1,0,2.88,1.6,1.6,0,0,1-1.23-.56l-.2-.24h-2.5V93h2.51l.2-.24a1.59,1.59,0,0,1,1.23-.57,1.44,1.44,0,1,1,0,2.88,1.59,1.59,0,0,1-1.23-.56l-.2-.24h-2.51v3.08h2.52l.2-.24a1.57,1.57,0,0,1,1.23-.57,1.44,1.44,0,1,1,0,2.88,1.59,1.59,0,0,1-1.23-.56l-.2-.24h-2.52v3.08h2.53l.2-.24a1.58,1.58,0,0,1,1.23-.57,1.44,1.44,0,1,1,0,2.87,1.63,1.63,0,0,1-1.23-.56l-.2-.23H103l-.19.16a16.73,16.73,0,0,1-11.55,4.22c-3.59,0-5.67-.53-8-2a11.87,11.87,0,0,0-13.35,0"/><path id="path178" class="cls-1" d="M31.81,101.5c4.29,2.28,7.82,2.89,14.15-.39a15.69,15.69,0,0,1,18.21,2.74v2.1c-5.06-6.56-13.16-6.31-19-3-4.67,2.64-9.89,2.35-15.14-.83V73.89l1.41-.71v28.13l.36.19"/><path id="path180" class="cls-1" d="M32.79,100.5v-28l.17-.09c4.83,1.12,8.47.75,13.35-1.31,5.91-2.5,11.91-1.7,17.85,2.37V102A17.49,17.49,0,0,0,53.09,98a16.69,16.69,0,0,0-7.75,1.93c-5.66,2.94-8.74,2.54-12.55.59"/><path id="path182" class="cls-1" d="M83.7,101.1c6.33,3.28,9.85,2.67,14.15.39l.35-.19V73.18l1.41.71V102c-5.75,2.75-10.85,3-15.16.87-5.72-2.89-13.82-3.62-19,3v-2.1a15.67,15.67,0,0,1,18.2-2.74"/><path id="path184" class="cls-1" d="M65.5,102V73.47c5.93-4.07,11.93-4.87,17.84-2.37,4.88,2.07,8.52,2.43,13.35,1.31l.17.09v28c-3.81,2-6.89,2.35-12.55-.59A17,17,0,0,0,65.5,102"/><path id="path186" class="cls-1" d="M97.16,67.38l-7.56-5.71L82,67.38l2.9-9.12-8-5.74h9.7l2.93-9.17,2.93,9.17h9.7l-8,5.74,2.89,9.11"/><path id="path188" class="cls-1" d="M47.58,67.46,40,61.75l-7.56,5.71,2.9-9.12-8-5.74h9.7L40,43.43l2.92,9.17h9.7l-8,5.74,2.9,9.12"/><path id="path190" class="cls-1" d="M57.27,139l2.9-9.12-8-5.74h9.7L64.82,115l2.92,9.17h9.7l-8,5.74,2.9,9.12-7.56-5.71L57.27,139"/></g><path class="cls-1" d="M244.86,117.71h-20.1l-26.11-30H182.4v30H165.5V28c14.21,0,28.42.13,42.63.13,21.12.13,32.26,14.21,32.26,29.7,0,12.29-5.63,24.71-22.66,28.16l27.14,30.59ZM182.4,43.85V72.52h25.73c10.75,0,15.36-7.17,15.36-14.34s-4.74-14.34-15.36-14.34Z"/><path class="cls-1" d="M263.93,91.72c1,7.81,7.81,13.44,18.82,13.44,5.76,0,13.31-2.18,16.9-5.89l10,9.86c-6.66,6.91-17.54,10.24-27.14,10.24-21.76,0-34.69-13.44-34.69-33.67,0-19.2,13.06-33,33.54-33,21.12,0,34.31,13.06,31.87,39Zm34.31-12.93c-1-8.19-7.42-12.29-16.38-12.29-8.45,0-15.36,4.1-17.67,12.29Z"/><path class="cls-1" d="M366.46,71.37c-4.48-4.22-9.6-5.63-15.62-5.63-7.42,0-11.52,2.3-11.52,6.27s3.71,6.4,11.78,6.91c11.9.77,27,3.46,27,20.22,0,11.14-9.09,20.74-27.14,20.74-10,0-20-1.66-29.19-11.27l7.68-11.14c4.48,5,14.72,8.71,21.76,8.83,5.89.13,11.39-2.94,11.39-7.55,0-4.35-3.58-6.14-12.54-6.66-11.9-.9-26.11-5.25-26.11-19.59,0-14.59,15.11-19.71,26.63-19.71,9.86,0,17.28,1.92,24.58,8.32Z"/><path class="cls-1" d="M401.4,91.72c1,7.81,7.81,13.44,18.82,13.44,5.76,0,13.31-2.18,16.9-5.89l10,9.86c-6.66,6.91-17.54,10.24-27.14,10.24-21.76,0-34.69-13.44-34.69-33.67,0-19.2,13.06-33,33.54-33,21.12,0,34.31,13.06,31.87,39Zm34.31-12.93c-1-8.19-7.42-12.29-16.38-12.29-8.45,0-15.36,4.1-17.67,12.29Z"/><path class="cls-1" d="M512.76,54.6h15v63.11H513l-.77-9.22c-3.58,7.42-13.44,11-20.48,11.14-18.69.13-32.51-11.39-32.51-33.54,0-21.76,14.46-33.15,32.9-33,8.45,0,16.51,4,20.1,10.24ZM474.87,86.09c0,12,8.32,19.2,18.69,19.2,24.58,0,24.58-38.27,0-38.27C483.19,67,474.87,74.06,474.87,86.09Z"/><path class="cls-1" d="M555.38,54.6l1.15,7.3c4.86-7.81,11.39-9,17.79-9s12.8,2.56,16.26,6l-7,13.57a15.6,15.6,0,0,0-11.26-4.1c-8.19,0-15.74,4.35-15.74,16v33.28H540.92V54.6Z"/><path class="cls-1" d="M650.62,109.64c-7.3,7.17-15,10-24.32,10-18.3,0-33.54-11-33.54-33.41S608,52.81,626.29,52.81c9,0,15.87,2.56,22.79,9.34l-9.86,10.37a19.17,19.17,0,0,0-12.67-5c-10.5,0-18.18,7.68-18.18,18.69,0,12,8.19,18.43,17.92,18.43,5,0,10-1.41,13.83-5.25Z"/><path class="cls-1" d="M673.14,28.1V63.17c5.63-7.3,12.54-9.47,19.71-9.47,17.92,0,25.86,12.16,25.86,30.72v33.28H703.09V84.55c0-11.52-6-16.38-14.34-16.38-9.22,0-15.62,7.81-15.62,17.28v32.26H657.52V28.1Z"/><path class="cls-1" d="M799.09,117.71V77H742v40.71h-6.91V28.1H742V70.73h57.09V28.1H806v89.6Z"/><path class="cls-1" d="M875.51,117.71V106.31c-4.86,8.7-13.7,12.29-22.53,12.42-16.9,0-28.55-10.37-28.55-27.91V54.34h6.27V90.7c0,14.34,8.83,22,22.53,21.89,13.06-.13,22.14-10,22.14-23V54.34h6.27v63.36Z"/><path class="cls-1" d="M904.31,28.1V68.3c5.12-10.24,15.36-14.85,26.24-14.85,17.67,0,31.75,11.78,31.75,32.64s-14,32.64-31.62,32.64c-10.75,0-21.12-5.38-26.37-15v14h-6.14V28.1ZM904.43,86c0,15.74,11,26.63,25.86,26.63,14.21,0,25.86-9,25.86-26.5,0-17.79-11.65-26.62-25.86-26.62C915.7,59.46,904.43,70.21,904.43,86Z"/></svg>